<svg id="logo" xmlns="http://www.w3.org/2000/svg" viewBox="0 0 475 53.4"><path d="M51.1.5v6.4H28.8v38.2h-6.5V6.9H0V.5M414.3.5v6.4H392v38.2h-6.5V6.9h-22.3V.5M225.4.5v35.7L187.3.5h-6.5v44.6h6.5V9.4l38.1 35.7h6.5V.5M106.4 32.5l-1.3-3.2c.6-.5 1.2-1 1.7-1.5s1-1.1 1.5-1.7c2-2.7 3.1-6 3.1-9.5 0-4.4-1.8-8.3-4.6-11.2-.5-.6-1.1-1.1-1.7-1.5l-.1-.1c-2.7-2-6-3.1-9.5-3.1H60.4v44.6h6.5V32.5h30.6c2.1 0 2.9 2.3 2.9 2.3l3.1 7.8 1 2.5h7l-4.6-11.5-.5-1.1zm-3.8-9.7c-.6.7-1.4 1.3-2.2 1.8-1.1.6-2.3 1.1-3.5 1.3-.5.1-.9.1-1.4.1H66.9V6.9h29.5c1.5.1 2.9.6 4.1 1.3 2.8 1.7 4.6 4.7 4.6 8.2-.1 2.5-1 4.7-2.5 6.4zM353 32.5l-1.3-3.2c.6-.5 1.2-1 1.7-1.5s1-1.1 1.5-1.7c2-2.7 3.1-6 3.1-9.5 0-4.4-1.8-8.3-4.6-11.2-.5-.6-1.1-1.1-1.7-1.5l-.1-.1c-2.7-2-6-3.1-9.5-3.1H307v44.6h6.5V32.5H344c2.1 0 2.9 2.3 2.9 2.3l3.1 7.8 1 2.5h7l-4.6-11.5-.4-1.1zm-3.8-9.7c-.6.7-1.4 1.3-2.2 1.8-1.1.6-2.3 1.1-3.5 1.3-.5.1-1 .1-1.5.1h-28.6V6.9h29.5c1.5.1 2.9.6 4.1 1.3 2.8 1.7 4.6 4.7 4.6 8.2 0 2.5-.9 4.7-2.4 6.4zM127.4 37.4l4.2-5c-2.8-3.3-4.5-7.6-4.5-12.3V.5h-6.5v19.6c0 6.5 2.4 12.5 6.5 17l.3.3zM165.3.5v19.6c0 6.2-3 11.8-7.6 15.2v-34c0-.1-.1-.1-.2 0l-10.9 30.2 3.6 7.2.2.3 7.1 14.3c.1.1.2.1.2 0V42.9c2.9-1.5 5.5-3.4 7.6-5.8 4-4.5 6.5-10.5 6.5-17V.5h-6.5z"/><path d="M136 36.2l-6.7 3-4.9 2.2c-.1 0 0 .1 0 .1l6-1.4c4.3 3.4 9.8 5.5 15.8 5.5 1.7 0 3.4-.2 5-.5l-4.5-6h-.5c-2.3 0-4.5-.4-6.6-1.2l4.9-1.1c.1 0 .2-.1.3-.2l1.9-5.1-10.7 4.7zM468.6.5v20.9h-38.2V.5H424v44.6h6.4V27.9h38.2v17.2h6.4V.5M275.4 0h-11.5c-12.7 0-23 10.3-23 23s10.3 23 23 23h11.5c12.7 0 23-10.3 23-23s-10.3-23-23-23zm0 39.4h-11.5c-9 0-16.4-7.4-16.4-16.4 0-9 7.4-16.4 16.4-16.4h11.5c9 0 16.4 7.4 16.4 16.4 0 9-7.3 16.4-16.4 16.4z"/></svg>