<svg xmlns="http://www.w3.org/2000/svg" viewBox="0 0 404.11 104.25"><defs><style>.cls-1{fill:#fff;}.cls-2{fill:#fff;}.cls-3{fill:#fff;}</style></defs><title>heartbeat-horizontal-svg</title><g id="Layer_2" data-name="Layer 2"><g id="Layer_1-2" data-name="Layer 1"><path class="cls-1" d="M20.41 56.69l6.46-7.95a2 2 0 0 1 3.13-.06l5.19 5.88 10.45-38.32a2 2 0 0 1 3.92 0l15.49 62.18 6.34-31.83a2 2 0 0 1 3.79-.52l5.37 10.62H109c27.2-47.37-28.66-74.53-50.45-43.34a.49.49 0 0 1-.81 0C36-17.84-19.89 9.32 7.31 56.69z"/><path class="cls-1" d="M79.31 60.74a2 2 0 0 1-1.81-1.11l-3.29-6.5-7 34.94a2 2 0 0 1-1.94 1.63 2 2 0 0 1-2-1.54L47.51 24.78l-9.44 34.47a2 2 0 0 1-3.47.8l-6.09-6.9L22.95 60a2 2 0 0 1-1.57.75H9.81c8.79 13.32 24.1 28.09 48.36 43.51 24.26-15.42 39.57-30.19 48.36-43.51z"/><path class="cls-2" d="M172 46.92h-8.82V31H147v15.9h-8.8v-39h8.8v15.55h16.17V7.87H172zM204 35.43h-18.21q.44 6.07 7.65 6.07a15.11 15.11 0 0 0 8.09-2.18v6.21a21.25 21.25 0 0 1-10 2.07q-6.75 0-10.48-3.72t-3.73-10.47a16.78 16.78 0 0 1 1.68-7.75 13.1 13.1 0 0 1 5-5.36 13.7 13.7 0 0 1 7.23-1.93q6 0 9.38 3.59t3.39 9.85zm-8-5.28q0-6-4.85-6a4.71 4.71 0 0 0-3.59 1.73 7.38 7.38 0 0 0-1.83 4.26zM233.42 46.92h-8.14v-4h-.11a9.09 9.09 0 0 1-8.31 4.68 8.71 8.71 0 0 1-6.36-2.3 8.19 8.19 0 0 1-2.36-6.14q0-8.09 9.61-9.37l7.57-1q0-4.57-5-4.57a16.74 16.74 0 0 0-9.48 3V20.7a20.49 20.49 0 0 1 4.93-1.61 26.6 26.6 0 0 1 5.66-.74q11.93 0 11.93 11.9zm-8.09-13.21l-5.06.65q-4.19.52-4.19 3.78a3.17 3.17 0 0 0 1 2.41 3.9 3.9 0 0 0 2.79.94 5.12 5.12 0 0 0 3.93-1.66 6 6 0 0 0 1.54-4.25zM257.3 26.8a7.37 7.37 0 0 0-3.62-.84 5.24 5.24 0 0 0-4.4 2 9 9 0 0 0-1.57 5.62v13.34h-8.6V19h8.6v5.17h.11q2-5.66 7.35-5.66a5.68 5.68 0 0 1 2.12.33zM280.89 46.6a12.71 12.71 0 0 1-5.75 1q-9.1 0-9.09-9.45V25.38h-4.52V19h4.52v-6l8.58-2.45V19h6.26v6.34h-6.26v11.32q0 4.36 3.46 4.36a5.83 5.83 0 0 0 2.8-.79zM315.85 32.19a19.92 19.92 0 0 1-1.54 8.06 12.27 12.27 0 0 1-4.4 5.43 11.49 11.49 0 0 1-6.56 1.92 8.74 8.74 0 0 1-7.79-3.92h-.11v3.24h-8.6V5.64h8.6v17.59h.11a10.17 10.17 0 0 1 9.07-4.87A10 10 0 0 1 312.9 22q2.95 3.66 2.95 10.19zm-8.85.11a8.67 8.67 0 0 0-1.5-5.42 5 5 0 0 0-4.22-1.93 5.44 5.44 0 0 0-4.3 1.95 7.39 7.39 0 0 0-1.69 5v2.86a6.63 6.63 0 0 0 1.53 4.44 5 5 0 0 0 4 1.8 5.27 5.27 0 0 0 4.57-2.27A11 11 0 0 0 307 32.3zM347.6 35.43h-18.19q.44 6.07 7.65 6.07a15.11 15.11 0 0 0 8.09-2.18v6.21a21.25 21.25 0 0 1-10 2.07q-6.75 0-10.48-3.72t-3.73-10.47a16.78 16.78 0 0 1 1.76-7.76 13.1 13.1 0 0 1 5-5.36 13.7 13.7 0 0 1 7.23-1.93q6 0 9.38 3.59t3.39 9.86zm-8-5.28q0-6-4.85-6a4.71 4.71 0 0 0-3.59 1.73 7.38 7.38 0 0 0-1.83 4.26zM377 46.92h-8.1v-4h-.11a9.09 9.09 0 0 1-8.31 4.68 8.71 8.71 0 0 1-6.36-2.3 8.19 8.19 0 0 1-2.36-6.14q0-8.09 9.61-9.37l7.57-1q0-4.57-5-4.57a16.74 16.74 0 0 0-9.48 3V20.7a20.49 20.49 0 0 1 4.93-1.61 26.6 26.6 0 0 1 5.66-.74q11.93 0 11.93 11.9zm-8.09-13.21l-5.06.65q-4.19.52-4.19 3.78a3.17 3.17 0 0 0 1 2.41 3.9 3.9 0 0 0 2.79.94 5.12 5.12 0 0 0 3.93-1.66 6 6 0 0 0 1.54-4.25zM400.7 46.6a12.71 12.71 0 0 1-5.75 1q-9.1 0-9.09-9.45V25.38h-4.52V19h4.52v-6l8.58-2.45V19h6.26v6.34h-6.26v11.32q0 4.36 3.46 4.36a5.83 5.83 0 0 0 2.8-.79z"/><path class="cls-3" d="M161.19 92.71a39.61 39.61 0 0 1-2.11 5.66 31.22 31.22 0 0 1-6.81 1C143.06 99.37 139 93 139 87.12c0-7.77 6-12.92 14.25-12.92a29.21 29.21 0 0 1 6.55 1c.3 2.11.52 3.59.74 5.59l-1.11.26c-1-3.92-3.18-5.52-7.18-5.52-6.18 0-9.48 5.22-9.48 10.85 0 6.92 4.07 11.66 9.7 11.66 3.78 0 5.77-2 7.63-5.74zM175.08 74.76c2.63 0 4.74.44 6.22 1.55a6.16 6.16 0 0 1 2.41 5.22c0 4.78-3.63 7.11-7.22 7.59a12.76 12.76 0 0 1-1.67 0l-2.74-.7v5.81c0 3.15.33 3.33 3.67 3.55v1h-10v-1c3-.22 3.26-.52 3.26-3.59V79.38c0-3.26-.3-3.41-3-3.59v-1zm-3 12.44a8 8 0 0 0 2.7.44c2.41 0 5.37-1.29 5.37-6 0-4-2.55-5.7-5.59-5.7a3.46 3.46 0 0 0-2.07.44c-.3.26-.41.7-.41 1.74zM210.32 99.11h-1.3a6.74 6.74 0 0 1-6-3.37c-1.3-1.81-2.63-4.11-3.74-5.92-.63-1-1.26-1.48-3.18-1.48h-1.18v5.89c0 3.15.33 3.37 3.29 3.59v1h-9.74v-1c3-.22 3.37-.44 3.37-3.59V79.31c0-3.15-.3-3.26-3.18-3.52v-1h9.18c2.7 0 4.52.33 5.92 1.26a5.54 5.54 0 0 1 2.44 4.85c0 3.18-2 5.15-4.7 6.33.63 1.22 2.18 3.7 3.29 5.37a32.12 32.12 0 0 0 3 3.85 5.26 5.26 0 0 0 2.67 1.74zm-13.62-12a6.13 6.13 0 0 0 4-1 5.31 5.31 0 0 0 2-4.59c0-4-2.63-5.48-5.44-5.48a3.63 3.63 0 0 0-2 .37c-.26.18-.41.63-.41 1.63v9.11zM243.16 93c-.22 1.22-1 4.7-1.3 5.85H224v-1c3.37-.26 3.67-.56 3.67-3.55V79.5c0-3.33-.3-3.44-3.18-3.7v-1H241c0 .93.19 3.44.3 5.33l-1.07.19a9.56 9.56 0 0 0-1.18-3.18c-.52-.78-1.52-1-4.18-1h-2.81c-1.15 0-1.22.07-1.22 1.18v8.4h3.48c3.33 0 3.52-.3 4-2.78h1.07V90h-1.07c-.48-2.67-.74-2.89-4-2.89h-3.52v7c0 1.74.22 2.52.89 3s2 .48 3.85.48c2.81 0 3.85-.3 4.66-1.26a10.79 10.79 0 0 0 1.8-3.51zM265.52 97.86a38.4 38.4 0 0 0-5.74 1.41v-2.41l-2.26 1.33a6.51 6.51 0 0 1-2.89 1.07c-3 0-6.85-2.7-6.85-7.88a9.48 9.48 0 0 1 9.55-9.18 8.56 8.56 0 0 1 2.44.41v-5.22c0-2.44-.18-2.55-2.85-2.74v-.89a34.41 34.41 0 0 0 5.78-1.29v22.1c0 1.92.26 2.11 1.63 2.26l1.18.11zm-5.74-12.4a4.6 4.6 0 0 0-3.78-1.89c-1.7 0-4.81 1.44-4.81 6.81 0 4.41 2.7 6.55 5.07 6.55a6.24 6.24 0 0 0 3.55-1.26zM286.88 97.93a41.55 41.55 0 0 0-5.44 1.33l-.22-.22v-2.63c-.85.63-1.7 1.3-2.74 1.92a5.29 5.29 0 0 1-2.85.93c-2.48 0-4.59-1.52-4.59-5.52v-7.25c0-2-.15-2.18-2.26-2.59V83a44.11 44.11 0 0 0 5.29-.67c-.11 1.15-.11 2.89-.11 5.4v5c0 3.29 1.59 4.18 3.26 4.18a5.75 5.75 0 0 0 4-1.78v-8.6c0-2.11-.22-2.26-2.89-2.63V83a39.42 39.42 0 0 0 5.81-.67v12.42c0 1.85.3 2.11 1.7 2.18l1 .07zM304.69 95.49c-1.63 2.15-4.11 3.78-6.29 3.78-4.67 0-7.4-3.78-7.4-7.74a8.9 8.9 0 0 1 3.7-7.25 9.8 9.8 0 0 1 5.59-2.07 5.53 5.53 0 0 1 3.29 1 1.36 1.36 0 0 1 .59 1.15 1.81 1.81 0 0 1-1.22 1.59c-.18 0-.37-.11-.7-.41a5.37 5.37 0 0 0-3.7-1.52C296.1 84 294 86 294 89.9c0 5.15 3.52 6.85 5.59 6.85a6 6 0 0 0 4.52-2zM320.46 99.26a3 3 0 0 1-1.74-.7 3.85 3.85 0 0 1-.89-1.67c-1.48 1-3.26 2.37-4.37 2.37a4.47 4.47 0 0 1-4.46-4.51c0-1.81 1-3 3-3.66a26.59 26.59 0 0 0 5.74-2.41V88c0-2.67-1.26-4.18-3.11-4.18a2.09 2.09 0 0 0-1.67.74 5.38 5.38 0 0 0-1.09 2.44 1 1 0 0 1-1.07.85 1.81 1.81 0 0 1-1.63-1.59c0-.56.48-1 1.18-1.48a16.51 16.51 0 0 1 5.55-2.59 4.82 4.82 0 0 1 3 1c1.3 1.07 1.67 2.59 1.67 4.52v6.89c0 1.67.67 2.22 1.3 2.22a2.8 2.8 0 0 0 1.33-.41l.37 1zm-2.7-9.33c-.78.41-2.55 1.19-3.33 1.56-1.44.67-2.26 1.37-2.26 2.7A2.71 2.71 0 0 0 314.8 97a5.29 5.29 0 0 0 3-1.33zM333.86 98.78a3.75 3.75 0 0 1-1.55.48c-2.33 0-3.63-1.48-3.63-4.41V84.09h-2.55l-.15-.37 1-1.07h1.7v-2.7l2.41-2.44.52.07v5.07h4.18a1.05 1.05 0 0 1-.22 1.44h-4v9.51c0 3 1.22 3.55 2.15 3.55a5.3 5.3 0 0 0 2.29-.63l.33 1zM356.15 90.45c0 6-4.37 8.81-8 8.81a8 8 0 0 1-8.15-8.18 8.44 8.44 0 0 1 8.11-8.88 8 8 0 0 1 8.04 8.25zm-12.7-.55c0 4.66 2 8.14 5.07 8.14 2.29 0 4.18-1.7 4.18-6.77 0-4.33-1.74-7.85-5-7.85-2.25 0-4.25 2.29-4.25 6.48zM366.07 86.12c1.11-1.85 2.7-3.92 4.48-3.92a1.91 1.91 0 0 1 1 3.67.86.86 0 0 1-1-.07A2 2 0 0 0 369 85c-1 0-2.15 1.11-3 3.18V95c0 2.44.19 2.67 3 2.89v1h-8.51v-1c2.29-.22 2.55-.44 2.55-2.89v-7.69c0-2.44-.18-2.59-2.29-2.89v-.81a21 21 0 0 0 5.25-1.52v4zM385.91 87c-.7-2.18-2-3.67-3.81-3.67a2.42 2.42 0 0 0-2.41 2.55c0 1.67 1.48 2.52 3.15 3.22 2.78 1.15 4.66 2.48 4.66 5 0 3.37-3.15 5.11-6.11 5.11a7.43 7.43 0 0 1-4.25-1.21 17.42 17.42 0 0 1-.59-4.37l1-.18c.67 2.44 2.33 4.59 4.55 4.59a2.58 2.58 0 0 0 2.63-2.59c0-1.63-1.07-2.52-2.92-3.37-2.22-1-4.63-2.26-4.63-5.11 0-2.59 2.22-4.78 5.63-4.78a8.62 8.62 0 0 1 3.29.63 27.91 27.91 0 0 1 .81 4z"/><path class="cls-2" d="M138.16 57.73h265.96v2.03H138.16z"/></g></g></svg>