<svg xmlns="http://www.w3.org/2000/svg" viewBox="0 0 574.53 514.84"><defs><style>.cls-1{fill:#fff;}</style></defs><title>heartbeat-icon-svg</title><g id="Layer_2" data-name="Layer 2"><g id="Layer_3" data-name="Layer 3"><path class="cls-1" d="M100.82 280l31.92-39.25a10 10 0 0 1 15.26-.3l25.61 29 51.81-189.26a10 10 0 0 1 19.35.22l76.5 306.85L352.56 230a10 10 0 0 1 18.73-2.56L397.82 280h140.61C672.74 46 396.88-88.11 289.26 65.92a2.44 2.44 0 0 1-4 0C177.65-88.11-98.21 46 36.11 280z"/><path class="cls-1" d="M391.67 300a10 10 0 0 1-8.92-5.49l-16.22-32.09L332.17 435a10 10 0 0 1-9.57 8h-.24a10 10 0 0 1-9.7-7.58l-78-313.06L188 292.59a10 10 0 0 1-17.15 4l-30.05-34.08-27.48 33.78a10 10 0 0 1-7.76 3.69H48.44c43.39 65.8 119 138.73 238.83 214.89C407.09 438.68 482.7 365.75 526.09 300z"/></g></g></svg>