<svg xmlns="http://www.w3.org/2000/svg" viewBox="0 0 497.83 399.68"><defs><style>.cls-1{fill:#fff;}.cls-2{fill:#fff;}.cls-3{fill:#fff;}</style></defs><title>heartbeat-v-logo</title><g id="Layer_2" data-name="Layer 2"><g id="Layer_1-2" data-name="Layer 1"><path class="cls-1" d="M172.93,114.1l13-16a4.08,4.08,0,0,1,6.22-.12l10.44,11.84,21.12-77.13a4.08,4.08,0,0,1,7.89.09l31.18,125.07,12.75-64.08a4.08,4.08,0,0,1,7.63-1L294,114.1h57.31c54.74-95.34-57.69-150-101.56-87.24a1,1,0,0,1-1.62,0c-43.86-62.78-156.3-8.11-101.56,87.24Z"/><path class="cls-1" d="M291.47,122.25a4.08,4.08,0,0,1-3.64-2.24l-6.61-13.08-14,70.34a4.08,4.08,0,0,1-3.9,3.28h-.1a4.08,4.08,0,0,1-4-3.09L227.46,49.87l-19,69.38a4.08,4.08,0,0,1-7,1.62L189.22,107,178,120.75a4.08,4.08,0,0,1-3.16,1.5H151.58c17.69,26.82,48.5,56.54,97.34,87.58,48.84-31,79.66-60.77,97.34-87.58Z"/><path class="cls-2" d="M66.73,309.44H50.25v-29.7H20v29.7H3.61V236.51H20V265.6H50.25V236.51H66.73Z"/><path class="cls-2" d="M126.53,288h-34q.81,11.34,14.29,11.34a28.23,28.23,0,0,0,15.1-4.07v11.59q-7.22,3.87-18.77,3.87-12.61,0-19.58-6.94t-7-19.55a31.34,31.34,0,0,1,3.28-14.49,24.46,24.46,0,0,1,9.26-10,25.59,25.59,0,0,1,13.5-3.61q11.19,0,17.52,6.71t6.33,18.41Zm-14.9-9.87q0-11.19-9.05-11.19a8.79,8.79,0,0,0-6.71,3.23,13.78,13.78,0,0,0-3.41,8Z"/><path class="cls-2" d="M181.51,309.44H166.3V302h-.2a17,17,0,0,1-15.51,8.75q-7.48,0-11.87-4.3t-4.4-11.47q0-15.1,18-17.49l14.14-1.88q0-8.54-9.26-8.54a31.27,31.27,0,0,0-17.7,5.54v-12.1a38.23,38.23,0,0,1,9.2-3,49.66,49.66,0,0,1,10.58-1.37q22.27,0,22.27,22.22Zm-15.1-24.67L156.94,286q-7.83,1-7.83,7.07a5.92,5.92,0,0,0,1.86,4.5,7.29,7.29,0,0,0,5.21,1.75,9.57,9.57,0,0,0,7.35-3.1,11.22,11.22,0,0,0,2.87-7.93Z"/><path class="cls-2" d="M226.11,271.86a13.76,13.76,0,0,0-6.76-1.58,9.78,9.78,0,0,0-8.21,3.79q-2.93,3.79-2.92,10.5v24.87H192.14V257.37h16.07V267h.2q3.81-10.58,13.73-10.58a10.58,10.58,0,0,1,4,.61Z"/><path class="cls-2" d="M270.17,308.83q-3.56,1.88-10.73,1.88-17,0-17-17.65V269.21H234V257.37h8.44V246.13l16-4.58v15.82h11.7v11.85h-11.7v21.05q0,8.14,6.46,8.14a10.88,10.88,0,0,0,5.24-1.48Z"/><path class="cls-2" d="M335.46,281.93A37.2,37.2,0,0,1,332.59,297a22.94,22.94,0,0,1-8.21,10.15,21.48,21.48,0,0,1-12.26,3.58q-9.66,0-14.54-7.32h-.2v6.05H281.3v-77.1h16.07V265.2h.2q5.9-9.1,16.93-9.1,9.92,0,15.43,6.82T335.46,281.93Zm-16.48.2q0-6.51-2.8-10.12a9.4,9.4,0,0,0-7.88-3.61,10.16,10.16,0,0,0-8,3.64,13.81,13.81,0,0,0-3.15,9.38v5.34A12.37,12.37,0,0,0,300,295a9.33,9.33,0,0,0,7.48,3.36,9.84,9.84,0,0,0,8.54-4.25Q319,289.91,319,282.13Z"/><path class="cls-2" d="M394.76,288h-34q.81,11.34,14.29,11.34a28.22,28.22,0,0,0,15.1-4.07v11.59q-7.22,3.87-18.77,3.87-12.61,0-19.58-6.94t-7-19.55a31.35,31.35,0,0,1,3.28-14.49,24.47,24.47,0,0,1,9.26-10,25.59,25.59,0,0,1,13.5-3.61q11.19,0,17.52,6.71t6.33,18.41Zm-14.9-9.87q0-11.19-9.05-11.19a8.79,8.79,0,0,0-6.71,3.23,13.79,13.79,0,0,0-3.41,8Z"/><path class="cls-2" d="M449.73,309.44H434.52V302h-.2a17,17,0,0,1-15.51,8.75q-7.48,0-11.87-4.3t-4.4-11.47q0-15.1,18-17.49l14.14-1.88q0-8.54-9.25-8.54a31.27,31.27,0,0,0-17.7,5.54v-12.1a38.24,38.24,0,0,1,9.2-3,49.67,49.67,0,0,1,10.58-1.37q22.27,0,22.28,22.22Zm-15.1-24.67L425.17,286q-7.83,1-7.83,7.07a5.91,5.91,0,0,0,1.86,4.5,7.29,7.29,0,0,0,5.21,1.75,9.57,9.57,0,0,0,7.35-3.1,11.22,11.22,0,0,0,2.87-7.93Z"/><path class="cls-2" d="M493.92,308.83q-3.56,1.88-10.73,1.88-17,0-17-17.65V269.21h-8.44V257.37h8.44V246.13l16-4.58v15.82h11.7v11.85h-11.7v21.05q0,8.14,6.46,8.14a10.88,10.88,0,0,0,5.24-1.48Z"/><path class="cls-3" d="M69.31,388.05a69.17,69.17,0,0,1-3.68,9.88,54.48,54.48,0,0,1-11.89,1.74c-16.09,0-23.13-11.11-23.13-21.38,0-13.57,10.47-22.55,24.87-22.55,5.23,0,9.63,1.42,11.44,1.74.52,3.68.9,6.27,1.29,9.76l-1.94.45c-1.68-6.85-5.56-9.63-12.53-9.63-10.79,0-16.54,9.11-16.54,18.93,0,12.08,7.11,20.35,16.93,20.35,6.59,0,10.08-3.55,13.31-10Z"/><path class="cls-3" d="M93.54,356.72c4.59,0,8.27.78,10.85,2.71s4.2,4.85,4.2,9.11c0,8.33-6.33,12.4-12.6,13.24a21.78,21.78,0,0,1-2.91,0l-4.78-1.23V390.7c0,5.49.58,5.81,6.4,6.2v1.81H77.19V396.9c5.17-.39,5.69-.91,5.69-6.27V364.79c0-5.69-.52-5.94-5.3-6.27v-1.81ZM88.3,378.43a14,14,0,0,0,4.72.78c4.2,0,9.37-2.26,9.37-10.47,0-7-4.46-10-9.76-10-1.81,0-3.17.32-3.62.78s-.71,1.23-.71,3Z"/><path class="cls-3" d="M155,399.23c-.78,0-1.49,0-2.26-.06-4.85-.26-7.56-1.68-10.47-5.88-2.26-3.17-4.59-7.17-6.52-10.34-1.1-1.81-2.2-2.58-5.56-2.58h-2.07v10.27c0,5.49.58,5.88,5.75,6.27v1.81h-17V396.9c5.3-.39,5.88-.78,5.88-6.27v-26c0-5.49-.52-5.69-5.56-6.14v-1.81h16c4.72,0,7.88.58,10.34,2.2a9.67,9.67,0,0,1,4.26,8.46c0,5.56-3.42,9-8.2,11,1.1,2.13,3.81,6.46,5.75,9.37a56.14,56.14,0,0,0,5.23,6.72,9.18,9.18,0,0,0,4.65,3Zm-23.77-21c3.29,0,5.43-.52,7-1.81,2.52-1.94,3.55-4.52,3.55-8,0-7-4.59-9.56-9.5-9.56a6.34,6.34,0,0,0-3.49.65c-.45.32-.71,1.1-.71,2.84v15.89Z"/><path class="cls-3" d="M212.35,388.5c-.39,2.13-1.68,8.21-2.26,10.21H178.95V396.9c5.88-.45,6.4-1,6.4-6.2V365c0-5.81-.52-6-5.56-6.46v-1.81H208.6c0,1.62.32,6,.52,9.3l-1.87.32a16.71,16.71,0,0,0-2.07-5.56c-.9-1.36-2.65-1.81-7.3-1.81H193c-2,0-2.13.13-2.13,2.07v14.67h6.07c5.81,0,6.14-.52,7-4.84h1.87v12.4h-1.87c-.84-4.65-1.29-5-6.91-5h-6.14v12.21c0,3,.39,4.39,1.55,5.23s3.49.84,6.72.84c4.91,0,6.72-.52,8.14-2.2a18.84,18.84,0,0,0,3.17-6.07Z"/><path class="cls-3" d="M251.37,397a66.94,66.94,0,0,0-10,2.46v-4.2l-3.94,2.33a11.34,11.34,0,0,1-5,1.87c-5.17,0-12-4.72-12-13.76s7.88-16,16.67-16a14.9,14.9,0,0,1,4.26.71v-9.11c0-4.26-.32-4.46-5-4.78V355a60.12,60.12,0,0,0,10.08-2.26v38.57c0,3.36.45,3.68,2.84,3.94l2.07.19Zm-10-21.64a8,8,0,0,0-6.65-3.29c-3,0-8.4,2.52-8.4,11.89,0,7.69,4.72,11.44,8.85,11.44a10.89,10.89,0,0,0,6.2-2.2Z"/><path class="cls-3" d="M288.65,397.16a72.42,72.42,0,0,0-9.5,2.33l-.39-.39v-4.59c-1.49,1.1-3,2.26-4.78,3.36a9.22,9.22,0,0,1-5,1.62c-4.33,0-8-2.65-8-9.63V377.2c0-3.55-.26-3.81-3.94-4.52v-1.49A76.79,76.79,0,0,0,266.3,370c-.19,2-.19,5-.19,9.43v8.66c0,5.75,2.78,7.3,5.69,7.3a10,10,0,0,0,7-3.1V377.26c0-3.68-.39-3.94-5-4.59v-1.49A68.79,68.79,0,0,0,283.87,370v21.58c0,3.23.52,3.68,3,3.81l1.81.13Z"/><path class="cls-3" d="M319.73,392.9c-2.84,3.75-7.17,6.59-11,6.59-8.14,0-12.92-6.59-12.92-13.5a15.53,15.53,0,0,1,6.46-12.66A17.09,17.09,0,0,1,312,369.7a9.65,9.65,0,0,1,5.75,1.68,2.38,2.38,0,0,1,1,2c0,1.36-1.42,2.78-2.13,2.78-.32,0-.65-.19-1.23-.71a9.37,9.37,0,0,0-6.46-2.65c-4.26,0-8,3.55-8,10.34,0,9,6.14,12,9.75,12,2.78,0,4.91-.78,7.88-3.55Z"/><path class="cls-3" d="M347.25,399.49a5.27,5.27,0,0,1-3-1.23,6.71,6.71,0,0,1-1.55-2.91c-2.58,1.74-5.69,4.13-7.62,4.13a7.8,7.8,0,0,1-7.75-7.88c0-3.17,1.68-5.17,5.23-6.4,3.88-1.29,8.59-3,10-4.2v-1.16c0-4.65-2.2-7.3-5.43-7.3a3.64,3.64,0,0,0-2.91,1.29,9.37,9.37,0,0,0-1.94,4.26,1.8,1.8,0,0,1-1.87,1.49,3.16,3.16,0,0,1-2.84-2.78c0-1,.84-1.68,2.07-2.58,1.81-1.29,6-3.81,9.69-4.52a8.42,8.42,0,0,1,5.3,1.74c2.26,1.87,2.91,4.52,2.91,7.88v12c0,2.91,1.16,3.88,2.26,3.88a4.9,4.9,0,0,0,2.33-.71l.65,1.68Zm-4.72-16.28c-1.36.71-4.46,2.07-5.81,2.71-2.52,1.16-3.94,2.39-3.94,4.72a4.73,4.73,0,0,0,4.59,5,9.24,9.24,0,0,0,5.17-2.33Z"/><path class="cls-3" d="M370.64,398.65a6.56,6.56,0,0,1-2.71.84c-4.07,0-6.33-2.58-6.33-7.69V373h-4.46l-.26-.65,1.74-1.87h3v-4.72l4.2-4.26.91.13v8.85H374a1.84,1.84,0,0,1-.39,2.52H366.7v16.6c0,5.23,2.13,6.2,3.75,6.2a9.24,9.24,0,0,0,4-1.1l.58,1.68Z"/><path class="cls-3" d="M409.53,384.11c0,10.4-7.62,15.38-14,15.38-8.85,0-14.15-7.11-14.15-14.28,0-10.66,8.27-15.5,14.15-15.5C403.52,369.7,409.53,376.1,409.53,384.11Zm-22.16-1c0,8.14,3.55,14.21,8.85,14.21,4,0,7.3-3,7.3-11.82,0-7.56-3-13.7-8.66-13.7C390.86,371.84,387.37,375.84,387.37,383.14Z"/><path class="cls-3" d="M426.84,376.55c1.94-3.23,4.72-6.85,7.82-6.85a3.34,3.34,0,0,1,1.68,6.4,1.5,1.5,0,0,1-1.74-.13,3.47,3.47,0,0,0-2.71-1.36c-1.68,0-3.75,1.94-5.17,5.56V392c0,4.26.32,4.65,5.3,5v1.68H417.15V397c4-.39,4.46-.78,4.46-5V378.62c0-4.26-.32-4.52-4-5v-1.42a36.48,36.48,0,0,0,9.11-2.65v7Z"/><path class="cls-3" d="M461.47,378.1c-1.23-3.81-3.49-6.4-6.65-6.4a4.21,4.21,0,0,0-4.2,4.46c0,2.91,2.58,4.39,5.49,5.62,4.84,2,8.14,4.33,8.14,8.79,0,5.88-5.49,8.92-10.66,8.92a13,13,0,0,1-7.43-2.2,30.42,30.42,0,0,1-1-7.62l1.68-.32c1.16,4.26,4.07,8,7.95,8a4.51,4.51,0,0,0,4.59-4.52c0-2.84-1.87-4.39-5.1-5.88-3.88-1.81-8.08-3.94-8.08-8.92,0-4.52,3.88-8.33,9.82-8.33a15,15,0,0,1,5.75,1.1,48.53,48.53,0,0,1,1.42,6.91Z"/><rect class="cls-2" y="333.71" width="497.83" height="3.14"/></g></g></svg>